<?xml version="1.0" encoding="iso-8859-1"?>
<!-- Generator: Adobe Illustrator 16.0.0, SVG Export Plug-In . SVG Version: 6.00 Build 0)  -->
<!DOCTYPE svg PUBLIC "-//W3C//DTD SVG 1.1//EN" "http://www.w3.org/Graphics/SVG/1.1/DTD/svg11.dtd">
<svg version="1.1" id="Capa_1" xmlns="http://www.w3.org/2000/svg" xmlns:xlink="http://www.w3.org/1999/xlink" x="0px" y="0px"
	 width="612px" height="612px" viewBox="0 0 612 612" style="enable-background:new 0 0 612 612;" xml:space="preserve">
<g>
	<g id="_x32__5_">
		<g>
			<path d="M76.5,229.5C34.253,229.5,0,263.753,0,306s34.253,76.5,76.5,76.5S153,348.247,153,306S118.747,229.5,76.5,229.5z
				 M306,420.75c-42.247,0-76.5,34.253-76.5,76.5s34.253,76.5,76.5,76.5s76.5-34.253,76.5-76.5S348.247,420.75,306,420.75z
				 M76.5,420.75c-42.247,0-76.5,34.253-76.5,76.5s34.253,76.5,76.5,76.5s76.5-34.253,76.5-76.5S118.747,420.75,76.5,420.75z
				 M535.5,191.25c42.247,0,76.5-34.253,76.5-76.5s-34.253-76.5-76.5-76.5S459,72.503,459,114.75S493.253,191.25,535.5,191.25z
				 M76.5,38.25C34.253,38.25,0,72.503,0,114.75s34.253,76.5,76.5,76.5s76.5-34.253,76.5-76.5S118.747,38.25,76.5,38.25z
				 M535.5,420.75c-42.247,0-76.5,34.253-76.5,76.5s34.253,76.5,76.5,76.5s76.5-34.253,76.5-76.5S577.747,420.75,535.5,420.75z
				 M535.5,229.5c-42.247,0-76.5,34.253-76.5,76.5s34.253,76.5,76.5,76.5S612,348.247,612,306S577.747,229.5,535.5,229.5z
				 M306,38.25c-42.247,0-76.5,34.253-76.5,76.5s34.253,76.5,76.5,76.5s76.5-34.253,76.5-76.5S348.247,38.25,306,38.25z M306,229.5
				c-42.247,0-76.5,34.253-76.5,76.5s34.253,76.5,76.5,76.5s76.5-34.253,76.5-76.5S348.247,229.5,306,229.5z"/>
		</g>
	</g>
</g>
<g>
</g>
<g>
</g>
<g>
</g>
<g>
</g>
<g>
</g>
<g>
</g>
<g>
</g>
<g>
</g>
<g>
</g>
<g>
</g>
<g>
</g>
<g>
</g>
<g>
</g>
<g>
</g>
<g>
</g>
</svg>
